<svg xmlns="http://www.w3.org/2000/svg" xmlns:xlink="http://www.w3.org/1999/xlink" width="500" zoomAndPan="magnify" viewBox="0 0 375 374.999991" height="500" preserveAspectRatio="xMidYMid meet" version="1.0"><defs><clipPath id="acf08fbdbb"><path d="M 5.609375 5 L 369.359375 5 L 369.359375 370 L 5.609375 370 Z M 5.609375 5 " clip-rule="nonzero"/></clipPath></defs><g clip-path="url(#acf08fbdbb)"><path fill="#000000" d="M 187.484375 5.605469 C 87.035156 5.605469 5.609375 87 5.609375 187.402344 C 5.609375 287.804688 87.035156 369.199219 187.484375 369.199219 C 287.929688 369.199219 369.359375 287.804688 369.359375 187.402344 C 369.359375 87 287.929688 5.605469 187.484375 5.605469 Z M 35.921875 187.402344 C 35.921875 103.734375 103.777344 35.90625 187.484375 35.90625 C 271.1875 35.90625 339.046875 103.734375 339.046875 187.402344 C 339.046875 255.582031 293.988281 313.242188 232.011719 332.253906 C 233.707031 301.636719 233.125 282.667969 230.269531 275.355469 C 227.257812 267.636719 224.800781 264.472656 223.328125 262.574219 C 222.363281 261.332031 221.820312 260.632812 221.820312 259.554688 C 221.820312 257.734375 223.101562 256.417969 225.664062 255.601562 C 247.992188 250.667969 262.96875 236.949219 270.585938 214.445312 C 281.140625 183.269531 266.074219 160.597656 259.980469 151.425781 C 259.476562 150.667969 259.035156 150 258.671875 149.429688 C 253.933594 141.949219 260.140625 123.746094 267.558594 109.179688 C 242.339844 104.125 232.707031 115.835938 227.183594 122.554688 C 224.929688 125.296875 223.359375 127.207031 221.691406 126.800781 C 220.199219 126.4375 218.597656 125.734375 216.671875 124.886719 C 211.167969 122.46875 203.046875 118.902344 187.484375 118.902344 C 168.183594 118.902344 155.394531 125.640625 153.4375 126.671875 C 153.265625 126.761719 153.179688 126.800781 153.179688 126.800781 C 143.03125 112.667969 128.625 106.792969 109.957031 109.179688 C 115.097656 129.71875 115.484375 143.132812 111.117188 149.429688 C 104.5625 158.871094 92.277344 180.839844 101.8125 214.445312 C 111.351562 248.054688 146.070312 255.601562 152.679688 255.601562 L 152.722656 255.609375 C 153.246094 255.722656 158.109375 256.773438 156.652344 260.878906 C 156.363281 261.972656 156.171875 263.460938 155.960938 265.136719 C 155.269531 270.515625 154.332031 277.828125 149.171875 280.207031 C 142.402344 283.324219 127.46875 285.027344 121.21875 281.132812 C 119.136719 279.835938 117.644531 277.125 115.84375 273.859375 C 112.238281 267.320312 107.410156 258.5625 94.203125 254.484375 C 74.402344 248.375 75.640625 256.457031 80.585938 258.4375 C 81.671875 258.875 83.113281 259.285156 84.761719 259.75 C 90.589844 261.398438 98.980469 263.777344 103.28125 270.691406 C 104.542969 272.71875 105.839844 274.941406 107.164062 277.207031 C 111.636719 284.867188 116.429688 293.078125 121.21875 296.226562 C 125.359375 298.945312 135.277344 300.035156 150.980469 299.492188 C 150.296875 314.308594 149.929688 325.878906 149.882812 334.203125 C 84.367188 317.484375 35.921875 258.101562 35.921875 187.402344 Z M 35.921875 187.402344 " fill-opacity="0.85" fill-rule="evenodd"/></g></svg>